<svg width="1031" height="350" viewBox="0 0 1031 350" fill="none" xmlns="http://www.w3.org/2000/svg">
    <mask id="mask0_3618_3206" style="mask-type:alpha" maskUnits="userSpaceOnUse" x="0" y="0" width="419" height="350">
        <path d="M230.898 152.873H187.959C187.959 152.873 181.825 178.668 209.428 178.668C237.032 178.668 230.898 152.873 230.898 152.873Z" fill="#3E3E3E"/>
        <path d="M288.142 177.013C288.142 177.013 301.08 229.71 346.362 219.21C381.604 211.038 352.831 141.309 375.472 118.587C387.083 106.935 407.816 112.096 407.816 112.096" stroke="#212121" stroke-width="21.1349" stroke-linecap="round"/>
        <path d="M130.674 177.013C130.674 177.013 117.737 229.71 72.4543 219.21C37.2123 211.038 65.9854 141.309 43.3443 118.587C31.7331 106.935 10.9998 112.096 10.9998 112.096" stroke="#3E3E3E" stroke-width="21.1349" stroke-linecap="round"/>
        <path d="M125.52 127.082C125.52 127.082 108.349 10.9995 207.951 11C307.552 11.0005 293.813 127.082 293.813 127.082" stroke="#3E3E3E" stroke-width="21.1349" stroke-linecap="round"/>
        <path d="M283.332 125.709C282.574 131.496 286.65 136.802 292.436 137.56C298.223 138.319 303.529 134.243 304.288 128.456L283.332 125.709ZM209.427 21.5674C232.121 21.5676 247.296 28.1142 257.717 37.13C268.312 46.2956 274.89 58.7964 278.841 72.0586C282.792 85.3188 283.942 98.7785 284.065 109.07C284.126 114.181 283.932 118.425 283.728 121.359C283.625 122.824 283.521 123.956 283.444 124.701C283.406 125.074 283.375 125.348 283.355 125.519C283.345 125.604 283.338 125.663 283.334 125.695C283.332 125.711 283.331 125.72 283.33 125.722C283.33 125.724 283.33 125.723 283.331 125.721C283.331 125.72 283.331 125.717 283.331 125.716C283.332 125.713 283.332 125.709 293.81 127.082C304.288 128.456 304.288 128.451 304.289 128.446C304.289 128.444 304.29 128.438 304.291 128.433C304.292 128.424 304.293 128.413 304.295 128.4C304.298 128.374 304.302 128.342 304.307 128.302C304.317 128.222 304.33 128.115 304.346 127.98C304.378 127.711 304.42 127.334 304.469 126.856C304.567 125.901 304.692 124.54 304.811 122.831C305.05 119.416 305.267 114.591 305.198 108.819C305.062 97.3455 303.792 81.7846 299.097 66.0243C294.402 50.2659 286.11 33.7462 271.545 21.1462C256.807 8.3965 236.533 0.432698 209.427 0.432554L209.427 21.5674Z" fill="#212121"/>
        <path d="M209.427 212.032V339" stroke="#3E3E3E" stroke-width="21.1349" stroke-linecap="round"/>
        <path d="M258.671 194.797C258.671 194.797 241.757 304.433 306.027 304.433C370.297 304.433 363.532 247.954 363.532 247.954" stroke="#212121" stroke-width="21.1349" stroke-linecap="round"/>
        <path d="M160.162 194.797C160.162 194.797 177.075 304.433 112.805 304.433C48.5349 304.433 55.3002 247.954 55.3002 247.954" stroke="#3E3E3E" stroke-width="21.1349" stroke-linecap="round"/>
        <ellipse cx="250.369" cy="136.75" rx="12.6002" ry="12.8985" fill="#212121"/>
        <ellipse cx="168.482" cy="136.75" rx="12.6002" ry="12.8985" fill="#3E3E3E"/>
    </mask>
    <g mask="url(#mask0_3618_3206)">
        <rect x="-14.4043" y="-20.243" width="224.07" height="390.985" fill="#FF474D"/>
        <rect x="209.67" y="-20.243" width="224.07" height="390.985" fill="#D61414"/>
    </g>
    <path d="M552.135 140.204V159.311H522.045V220.954C522.045 226.564 523.101 230.583 525.213 233.009C527.475 235.284 530.869 236.497 535.393 236.649C539.918 236.649 545.499 236.497 552.135 236.194V253.936C534.79 256.21 522.121 254.77 514.127 249.614C506.284 244.458 502.363 234.905 502.363 220.954V159.311H479.965V140.204H502.363V114.273L522.045 108.359V140.204H552.135Z" fill="#3E3E3E"/>
    <path d="M585.392 119.505C581.621 119.505 578.454 118.216 575.89 115.638C573.326 113.06 572.044 109.951 572.044 106.312C572.044 102.672 573.326 99.5636 575.89 96.9857C578.454 94.2561 581.621 92.8914 585.392 92.8914C589.012 92.8914 592.103 94.2561 594.667 96.9857C597.232 99.5636 598.514 102.672 598.514 106.312C598.514 109.951 597.232 113.06 594.667 115.638C592.103 118.216 589.012 119.505 585.392 119.505ZM595.12 253.936H575.437V140.204H595.12V253.936Z" fill="#3E3E3E"/>
    <path d="M681.481 137.247C694.753 137.247 705.387 141.493 713.38 149.985C721.374 158.325 725.371 169.698 725.371 184.104V253.936H705.688V185.242C705.688 176.143 703.2 169.016 698.222 163.86C693.245 158.704 686.383 156.126 677.635 156.126C667.529 156.126 659.536 159.311 653.654 165.68C647.771 171.897 644.83 181.223 644.83 193.658V253.936H625.148V140.204H644.83V156.581C652.673 143.692 664.89 137.247 681.481 137.247Z" fill="#3E3E3E"/>
    <path d="M794.965 232.782L830.485 140.204H851.751L806.504 253.936H783.427L738.18 140.204H759.446L794.965 232.782Z" fill="#3E3E3E"/>
    <path d="M878.352 119.505C874.581 119.505 871.414 118.216 868.85 115.638C866.286 113.06 865.004 109.951 865.004 106.312C865.004 102.672 866.286 99.5636 868.85 96.9857C871.414 94.2561 874.581 92.8914 878.352 92.8914C881.971 92.8914 885.063 94.2561 887.627 96.9857C890.191 99.5636 891.473 102.672 891.473 106.312C891.473 109.951 890.191 113.06 887.627 115.638C885.063 118.216 881.971 119.505 878.352 119.505ZM888.08 253.936H868.397V140.204H888.08V253.936Z" fill="#3E3E3E"/>
    <path d="M1013.58 239.606C1002.12 251.13 988.015 256.893 971.273 256.893C954.532 256.893 940.43 251.13 928.967 239.606C917.504 228.081 911.773 213.902 911.773 197.07C911.773 180.237 917.504 166.059 928.967 154.534C940.43 143.009 954.532 137.247 971.273 137.247C988.015 137.247 1002.12 143.009 1013.58 154.534C1025.19 166.211 1031 180.389 1031 197.07C1031 213.751 1025.19 227.929 1013.58 239.606ZM971.273 237.558C982.585 237.558 992.087 233.692 999.779 225.958C1007.47 218.224 1011.32 208.595 1011.32 197.07C1011.32 185.545 1007.47 175.916 999.779 168.182C992.087 160.448 982.585 156.581 971.273 156.581C960.112 156.581 950.686 160.448 942.994 168.182C935.302 175.916 931.456 185.545 931.456 197.07C931.456 208.595 935.302 218.224 942.994 225.958C950.686 233.692 960.112 237.558 971.273 237.558Z" fill="#3E3E3E"/>
    <path d="M794.965 232.782L830.485 140.204H851.751L806.504 253.936H783.427L738.18 140.204H759.446L794.965 232.782Z" fill="#212121"/>
    <path d="M878.352 119.505C874.581 119.505 871.414 118.216 868.85 115.638C866.286 113.06 865.004 109.951 865.004 106.312C865.004 102.672 866.286 99.5636 868.85 96.9857C871.414 94.2561 874.581 92.8914 878.352 92.8914C881.971 92.8914 885.063 94.2561 887.627 96.9857C890.191 99.5636 891.473 102.672 891.473 106.312C891.473 109.951 890.191 113.06 887.627 115.638C885.063 118.216 881.971 119.505 878.352 119.505ZM888.08 253.936H868.397V140.204H888.08V253.936Z" fill="#212121"/>
    <path d="M1013.58 239.606C1002.12 251.13 988.015 256.893 971.273 256.893C954.532 256.893 940.43 251.13 928.967 239.606C917.504 228.081 911.773 213.902 911.773 197.07C911.773 180.237 917.504 166.059 928.967 154.534C940.43 143.009 954.532 137.247 971.273 137.247C988.015 137.247 1002.12 143.009 1013.58 154.534C1025.19 166.211 1031 180.389 1031 197.07C1031 213.751 1025.19 227.929 1013.58 239.606ZM971.273 237.558C982.585 237.558 992.087 233.692 999.779 225.958C1007.47 218.224 1011.32 208.595 1011.32 197.07C1011.32 185.545 1007.47 175.916 999.779 168.182C992.087 160.448 982.585 156.581 971.273 156.581C960.112 156.581 950.686 160.448 942.994 168.182C935.302 175.916 931.456 185.545 931.456 197.07C931.456 208.595 935.302 218.224 942.994 225.958C950.686 233.692 960.112 237.558 971.273 237.558Z" fill="#212121"/>
    <ellipse cx="879.418" cy="107.109" rx="14.143" ry="14.2175" fill="#D61414"/>
    <ellipse cx="586.017" cy="107.109" rx="14.143" ry="14.2175" fill="#FF474D"/>
</svg>
