<svg width="87" height="55" viewBox="0 0 87 55" fill="none" xmlns="http://www.w3.org/2000/svg">
<path d="M82.0134 54.6455C82.2897 54.8396 82.671 54.7729 82.8651 54.4966L86.0281 49.9937C86.2222 49.7174 86.1556 49.336 85.8793 49.1419C85.603 48.9478 85.2216 49.0145 85.0275 49.2908L82.216 53.2934L78.2136 50.482C77.9373 50.2879 77.5559 50.3545 77.3618 50.6309C77.1677 50.9072 77.2344 51.2885 77.5107 51.4826L82.0134 54.6455ZM81.6448 53.5767L81.7625 54.2504L82.9671 54.0399L82.8493 53.3662L81.6448 53.5767Z" fill="url(#paint0_linear_703_1585)"/>
<rect width="1.83422" height="1.83422" rx="0.305703" transform="matrix(0.707054 -0.70716 0.707054 0.70716 80.394 49.1012)" fill="url(#paint1_radial_703_1585)"/>
<rect width="1.83422" height="1.83422" rx="0.305703" transform="matrix(0.707054 -0.70716 0.707054 0.70716 79.5474 45.0171)" fill="url(#paint2_radial_703_1585)"/>
<rect width="1.83422" height="1.83422" rx="0.305703" transform="matrix(0.707054 -0.70716 0.707054 0.70716 78.5259 40.8521)" fill="url(#paint3_radial_703_1585)"/>
<rect width="1.83422" height="1.83422" rx="0.305703" transform="matrix(0.707054 -0.70716 0.707054 0.70716 77.3672 36.7231)" fill="url(#paint4_radial_703_1585)"/>
<rect width="1.83422" height="1.83422" rx="0.305703" transform="matrix(0.707054 -0.70716 0.707054 0.70716 76.0591 32.6382)" fill="url(#paint5_radial_703_1585)"/>
<rect width="1.83422" height="1.83422" rx="0.305703" transform="matrix(0.707054 -0.70716 0.707054 0.70716 74.5884 28.61)" fill="url(#paint6_radial_703_1585)"/>
<rect width="1.83422" height="1.83422" rx="0.305703" transform="matrix(0.707054 -0.70716 0.707054 0.70716 72.9229 24.6583)" fill="url(#paint7_radial_703_1585)"/>
<rect width="1.83422" height="1.83422" rx="0.305703" transform="matrix(0.707054 -0.70716 0.707054 0.70716 71.02 20.8151)" fill="url(#paint8_radial_703_1585)"/>
<rect width="1.83422" height="1.83422" rx="0.305703" transform="matrix(0.707054 -0.70716 0.707054 0.70716 68.8198 17.134)" fill="url(#paint9_radial_703_1585)"/>
<rect width="1.83422" height="1.83422" rx="0.305703" transform="matrix(0.707054 -0.70716 0.707054 0.70716 65.7476 13.386)" fill="url(#paint10_radial_703_1585)"/>
<rect width="1.83422" height="1.83422" rx="0.305703" transform="matrix(0.707054 -0.70716 0.707054 0.70716 62.5146 10.2059)" fill="url(#paint11_radial_703_1585)"/>
<rect width="1.83422" height="1.83422" rx="0.305703" transform="matrix(0.707054 -0.70716 0.707054 0.70716 58.9434 7.82947)" fill="url(#paint12_radial_703_1585)"/>
<rect width="1.83422" height="1.83422" rx="0.305703" transform="matrix(0.707054 -0.70716 0.707054 0.70716 55.1006 5.92969)" fill="url(#paint13_radial_703_1585)"/>
<rect width="1.83422" height="1.83422" rx="0.305703" transform="matrix(0.707054 -0.70716 0.707054 0.70716 51.0757 4.44617)" fill="url(#paint14_radial_703_1585)"/>
<rect width="1.83422" height="1.83422" rx="0.305703" transform="matrix(0.707054 -0.70716 0.707054 0.70716 46.9409 3.31543)" fill="url(#paint15_radial_703_1585)"/>
<rect width="1.83422" height="1.83422" rx="0.305703" transform="matrix(0.707054 -0.70716 0.707054 0.70716 42.7363 2.48254)" fill="url(#paint16_radial_703_1585)"/>
<rect width="1.83422" height="1.83422" rx="0.305703" transform="matrix(0.707054 -0.70716 0.707054 0.70716 38.4868 1.90173)" fill="url(#paint17_radial_703_1585)"/>
<rect width="1.83422" height="1.83422" rx="0.305703" transform="matrix(0.707054 -0.70716 0.707054 0.70716 34.2134 1.53613)" fill="url(#paint18_radial_703_1585)"/>
<rect width="1.83422" height="1.83422" rx="0.305703" transform="matrix(0.707054 -0.70716 0.707054 0.70716 29.9302 1.35706)" fill="url(#paint19_radial_703_1585)"/>
<rect width="1.83422" height="1.83422" rx="0.305703" transform="matrix(0.707054 -0.70716 0.707054 0.70716 25.644 1.34155)" fill="url(#paint20_radial_703_1585)"/>
<rect width="1.83422" height="1.83422" rx="0.305703" transform="matrix(0.707054 -0.70716 0.707054 0.70716 21.3564 1.4707)" fill="url(#paint21_radial_703_1585)"/>
<rect width="1.83422" height="1.83422" rx="0.305703" transform="matrix(0.707054 -0.70716 0.707054 0.70716 17.0757 1.73108)" fill="url(#paint22_radial_703_1585)"/>
<rect width="1.83422" height="1.83422" rx="0.305703" transform="matrix(0.707054 -0.70716 0.707054 0.70716 12.8062 2.11157)" fill="url(#paint23_radial_703_1585)"/>
<rect width="1.83422" height="1.83422" rx="0.305703" transform="matrix(0.707054 -0.70716 0.707054 0.70716 8.54688 2.604)" fill="url(#paint24_radial_703_1585)"/>
<rect width="1.83422" height="1.83422" rx="0.305703" transform="matrix(0.707054 -0.70716 0.707054 0.70716 4.63721 3.60693)" fill="url(#paint25_radial_703_1585)"/>
<rect width="1.83422" height="1.83422" rx="0.305703" transform="matrix(0.707054 -0.70716 0.707054 0.70716 0.970703 4.82922)" fill="url(#paint26_radial_703_1585)"/>
<defs>
<linearGradient id="paint0_linear_703_1585" x1="82.4136" y1="54.8301" x2="81.0127" y2="47.083" gradientUnits="userSpaceOnUse">
<stop stop-color="#FF474D"/>
<stop offset="1" stop-color="#FFD7D7"/>
</linearGradient>
<radialGradient id="paint1_radial_703_1585" cx="0" cy="0" r="1" gradientUnits="userSpaceOnUse" gradientTransform="translate(0.91711 0.91711) rotate(85.3036) scale(1.75783)">
<stop stop-color="#FF474D"/>
<stop offset="1" stop-color="#FFD7D7"/>
</radialGradient>
<radialGradient id="paint2_radial_703_1585" cx="0" cy="0" r="1" gradientUnits="userSpaceOnUse" gradientTransform="translate(0.91711 0.91711) rotate(85.3036) scale(1.75783)">
<stop stop-color="#FF474D"/>
<stop offset="1" stop-color="#FFD7D7"/>
</radialGradient>
<radialGradient id="paint3_radial_703_1585" cx="0" cy="0" r="1" gradientUnits="userSpaceOnUse" gradientTransform="translate(0.91711 0.91711) rotate(85.3036) scale(1.75783)">
<stop stop-color="#FF474D"/>
<stop offset="1" stop-color="#FFD7D7"/>
</radialGradient>
<radialGradient id="paint4_radial_703_1585" cx="0" cy="0" r="1" gradientUnits="userSpaceOnUse" gradientTransform="translate(0.91711 0.91711) rotate(85.3036) scale(1.75783)">
<stop stop-color="#FF474D"/>
<stop offset="1" stop-color="#FFD7D7"/>
</radialGradient>
<radialGradient id="paint5_radial_703_1585" cx="0" cy="0" r="1" gradientUnits="userSpaceOnUse" gradientTransform="translate(0.91711 0.91711) rotate(85.3036) scale(1.75783)">
<stop stop-color="#FF474D"/>
<stop offset="1" stop-color="#FFD7D7"/>
</radialGradient>
<radialGradient id="paint6_radial_703_1585" cx="0" cy="0" r="1" gradientUnits="userSpaceOnUse" gradientTransform="translate(0.91711 0.91711) rotate(85.3036) scale(1.75783)">
<stop stop-color="#FF474D"/>
<stop offset="1" stop-color="#FFD7D7"/>
</radialGradient>
<radialGradient id="paint7_radial_703_1585" cx="0" cy="0" r="1" gradientUnits="userSpaceOnUse" gradientTransform="translate(0.91711 0.91711) rotate(85.3036) scale(1.75783)">
<stop stop-color="#FF474D"/>
<stop offset="1" stop-color="#FFD7D7"/>
</radialGradient>
<radialGradient id="paint8_radial_703_1585" cx="0" cy="0" r="1" gradientUnits="userSpaceOnUse" gradientTransform="translate(0.91711 0.91711) rotate(85.3036) scale(1.75783)">
<stop stop-color="#FF474D"/>
<stop offset="1" stop-color="#FFD7D7"/>
</radialGradient>
<radialGradient id="paint9_radial_703_1585" cx="0" cy="0" r="1" gradientUnits="userSpaceOnUse" gradientTransform="translate(0.91711 0.91711) rotate(85.3036) scale(1.75783)">
<stop stop-color="#FF474D"/>
<stop offset="1" stop-color="#FFD7D7"/>
</radialGradient>
<radialGradient id="paint10_radial_703_1585" cx="0" cy="0" r="1" gradientUnits="userSpaceOnUse" gradientTransform="translate(0.91711 0.91711) rotate(85.3036) scale(1.75783)">
<stop stop-color="#FF474D"/>
<stop offset="1" stop-color="#FFD7D7"/>
</radialGradient>
<radialGradient id="paint11_radial_703_1585" cx="0" cy="0" r="1" gradientUnits="userSpaceOnUse" gradientTransform="translate(0.91711 0.91711) rotate(85.3036) scale(1.75783)">
<stop stop-color="#FF474D"/>
<stop offset="1" stop-color="#FFD7D7"/>
</radialGradient>
<radialGradient id="paint12_radial_703_1585" cx="0" cy="0" r="1" gradientUnits="userSpaceOnUse" gradientTransform="translate(0.91711 0.91711) rotate(85.3036) scale(1.75783)">
<stop stop-color="#FF474D"/>
<stop offset="1" stop-color="#FFD7D7"/>
</radialGradient>
<radialGradient id="paint13_radial_703_1585" cx="0" cy="0" r="1" gradientUnits="userSpaceOnUse" gradientTransform="translate(0.91711 0.91711) rotate(85.3036) scale(1.75783)">
<stop stop-color="#FF474D"/>
<stop offset="1" stop-color="#FFD7D7"/>
</radialGradient>
<radialGradient id="paint14_radial_703_1585" cx="0" cy="0" r="1" gradientUnits="userSpaceOnUse" gradientTransform="translate(0.91711 0.91711) rotate(85.3036) scale(1.75783)">
<stop stop-color="#FF474D"/>
<stop offset="1" stop-color="#FFD7D7"/>
</radialGradient>
<radialGradient id="paint15_radial_703_1585" cx="0" cy="0" r="1" gradientUnits="userSpaceOnUse" gradientTransform="translate(0.91711 0.91711) rotate(85.3036) scale(1.75783)">
<stop stop-color="#FF474D"/>
<stop offset="1" stop-color="#FFD7D7"/>
</radialGradient>
<radialGradient id="paint16_radial_703_1585" cx="0" cy="0" r="1" gradientUnits="userSpaceOnUse" gradientTransform="translate(0.91711 0.91711) rotate(85.3036) scale(1.75783)">
<stop stop-color="#FF474D"/>
<stop offset="1" stop-color="#FFD7D7"/>
</radialGradient>
<radialGradient id="paint17_radial_703_1585" cx="0" cy="0" r="1" gradientUnits="userSpaceOnUse" gradientTransform="translate(0.91711 0.91711) rotate(85.3036) scale(1.75783)">
<stop stop-color="#FF474D"/>
<stop offset="1" stop-color="#FFD7D7"/>
</radialGradient>
<radialGradient id="paint18_radial_703_1585" cx="0" cy="0" r="1" gradientUnits="userSpaceOnUse" gradientTransform="translate(0.91711 0.91711) rotate(85.3036) scale(1.75783)">
<stop stop-color="#FF474D"/>
<stop offset="1" stop-color="#FFD7D7"/>
</radialGradient>
<radialGradient id="paint19_radial_703_1585" cx="0" cy="0" r="1" gradientUnits="userSpaceOnUse" gradientTransform="translate(0.91711 0.91711) rotate(85.3036) scale(1.75783)">
<stop stop-color="#FF474D"/>
<stop offset="1" stop-color="#FFD7D7"/>
</radialGradient>
<radialGradient id="paint20_radial_703_1585" cx="0" cy="0" r="1" gradientUnits="userSpaceOnUse" gradientTransform="translate(0.91711 0.91711) rotate(85.3036) scale(1.75783)">
<stop stop-color="#FF474D"/>
<stop offset="1" stop-color="#FFD7D7"/>
</radialGradient>
<radialGradient id="paint21_radial_703_1585" cx="0" cy="0" r="1" gradientUnits="userSpaceOnUse" gradientTransform="translate(0.91711 0.91711) rotate(85.3036) scale(1.75783)">
<stop stop-color="#FF474D"/>
<stop offset="1" stop-color="#FFD7D7"/>
</radialGradient>
<radialGradient id="paint22_radial_703_1585" cx="0" cy="0" r="1" gradientUnits="userSpaceOnUse" gradientTransform="translate(0.91711 0.91711) rotate(85.3036) scale(1.75783)">
<stop stop-color="#FF474D"/>
<stop offset="1" stop-color="#FFD7D7"/>
</radialGradient>
<radialGradient id="paint23_radial_703_1585" cx="0" cy="0" r="1" gradientUnits="userSpaceOnUse" gradientTransform="translate(0.91711 0.91711) rotate(85.3036) scale(1.75783)">
<stop stop-color="#FF474D"/>
<stop offset="1" stop-color="#FFD7D7"/>
</radialGradient>
<radialGradient id="paint24_radial_703_1585" cx="0" cy="0" r="1" gradientUnits="userSpaceOnUse" gradientTransform="translate(0.91711 0.91711) rotate(85.3036) scale(1.75783)">
<stop stop-color="#FF474D"/>
<stop offset="1" stop-color="#FFD7D7"/>
</radialGradient>
<radialGradient id="paint25_radial_703_1585" cx="0" cy="0" r="1" gradientUnits="userSpaceOnUse" gradientTransform="translate(0.91711 0.91711) rotate(85.3036) scale(1.75783)">
<stop stop-color="#FF474D"/>
<stop offset="1" stop-color="#FFD7D7"/>
</radialGradient>
<radialGradient id="paint26_radial_703_1585" cx="0" cy="0" r="1" gradientUnits="userSpaceOnUse" gradientTransform="translate(0.91711 0.91711) rotate(85.3036) scale(1.75783)">
<stop stop-color="#FF474D"/>
<stop offset="1" stop-color="#FFD7D7"/>
</radialGradient>
</defs>
</svg>
