<svg width="86" height="56" viewBox="0 0 86 56" fill="none" xmlns="http://www.w3.org/2000/svg">
<path d="M4.98936 55.1557C4.71313 55.3497 4.3318 55.283 4.13766 55.0066L0.97386 50.5026C0.779714 50.2262 0.846263 49.8448 1.1225 49.6508C1.39874 49.4568 1.78006 49.5235 1.97421 49.7999L4.78647 53.8035L8.78786 50.9927C9.0641 50.7987 9.44542 50.8654 9.63957 51.1418C9.83372 51.4182 9.76717 51.7996 9.49093 51.9936L4.98936 55.1557ZM5.35762 54.0871L5.24008 54.7607L4.03558 54.5498L4.15312 53.8763L5.35762 54.0871Z" fill="url(#paint0_linear_703_1614)"/>
<rect width="1.83422" height="1.83422" rx="0.305703" transform="matrix(-0.706542 -0.707671 -0.706542 0.707671 6.60498 49.4327)" fill="url(#paint1_radial_703_1614)"/>
<rect width="1.83422" height="1.83422" rx="0.305703" transform="matrix(-0.706542 -0.707671 -0.706542 0.707671 7.45068 45.3485)" fill="url(#paint2_radial_703_1614)"/>
<rect width="1.83422" height="1.83422" rx="0.305703" transform="matrix(-0.706542 -0.707671 -0.706542 0.707671 8.47217 41.1836)" fill="url(#paint3_radial_703_1614)"/>
<rect width="1.83422" height="1.83422" rx="0.305703" transform="matrix(-0.706542 -0.707671 -0.706542 0.707671 9.62939 37.0546)" fill="url(#paint4_radial_703_1614)"/>
<rect width="1.83422" height="1.83422" rx="0.305703" transform="matrix(-0.706542 -0.707671 -0.706542 0.707671 10.9326 32.9695)" fill="url(#paint5_radial_703_1614)"/>
<rect width="1.83422" height="1.83422" rx="0.305703" transform="matrix(-0.706542 -0.707671 -0.706542 0.707671 12.4009 28.9414)" fill="url(#paint6_radial_703_1614)"/>
<rect width="1.83422" height="1.83422" rx="0.305703" transform="matrix(-0.706542 -0.707671 -0.706542 0.707671 14.0669 24.9897)" fill="url(#paint7_radial_703_1614)"/>
<rect width="1.83422" height="1.83422" rx="0.305703" transform="matrix(-0.706542 -0.707671 -0.706542 0.707671 15.9668 21.1464)" fill="url(#paint8_radial_703_1614)"/>
<rect width="1.83422" height="1.83422" rx="0.305703" transform="matrix(-0.706542 -0.707671 -0.706542 0.707671 18.1636 17.4657)" fill="url(#paint9_radial_703_1614)"/>
<rect width="1.83422" height="1.83422" rx="0.305703" transform="matrix(-0.706542 -0.707671 -0.706542 0.707671 21.231 13.7174)" fill="url(#paint10_radial_703_1614)"/>
<rect width="1.83422" height="1.83422" rx="0.305703" transform="matrix(-0.706542 -0.707671 -0.706542 0.707671 24.4604 10.5372)" fill="url(#paint11_radial_703_1614)"/>
<rect width="1.83422" height="1.83422" rx="0.305703" transform="matrix(-0.706542 -0.707671 -0.706542 0.707671 28.0225 8.16064)" fill="url(#paint12_radial_703_1614)"/>
<rect width="1.83422" height="1.83422" rx="0.305703" transform="matrix(-0.706542 -0.707671 -0.706542 0.707671 31.8623 6.26147)" fill="url(#paint13_radial_703_1614)"/>
<rect width="1.83422" height="1.83422" rx="0.305703" transform="matrix(-0.706542 -0.707671 -0.706542 0.707671 35.8799 4.77759)" fill="url(#paint14_radial_703_1614)"/>
<rect width="1.83422" height="1.83422" rx="0.305703" transform="matrix(-0.706542 -0.707671 -0.706542 0.707671 40.0098 3.64709)" fill="url(#paint15_radial_703_1614)"/>
<rect width="1.83422" height="1.83422" rx="0.305703" transform="matrix(-0.706542 -0.707671 -0.706542 0.707671 44.2109 2.81396)" fill="url(#paint16_radial_703_1614)"/>
<rect width="1.83422" height="1.83422" rx="0.305703" transform="matrix(-0.706542 -0.707671 -0.706542 0.707671 48.4512 2.23291)" fill="url(#paint17_radial_703_1614)"/>
<rect width="1.83422" height="1.83422" rx="0.305703" transform="matrix(-0.706542 -0.707671 -0.706542 0.707671 52.7188 1.86755)" fill="url(#paint18_radial_703_1614)"/>
<rect width="1.83422" height="1.83422" rx="0.305703" transform="matrix(-0.706542 -0.707671 -0.706542 0.707671 56.9966 1.6886)" fill="url(#paint19_radial_703_1614)"/>
<rect width="1.83422" height="1.83422" rx="0.305703" transform="matrix(-0.706542 -0.707671 -0.706542 0.707671 61.2793 1.67273)" fill="url(#paint20_radial_703_1614)"/>
<rect width="1.83422" height="1.83422" rx="0.305703" transform="matrix(-0.706542 -0.707671 -0.706542 0.707671 65.5571 1.80225)" fill="url(#paint21_radial_703_1614)"/>
<rect width="1.83422" height="1.83422" rx="0.305703" transform="matrix(-0.706542 -0.707671 -0.706542 0.707671 69.832 2.06238)" fill="url(#paint22_radial_703_1614)"/>
<rect width="1.83422" height="1.83422" rx="0.305703" transform="matrix(-0.706542 -0.707671 -0.706542 0.707671 74.0981 2.44263)" fill="url(#paint23_radial_703_1614)"/>
<rect width="1.83422" height="1.83422" rx="0.305703" transform="matrix(-0.706542 -0.707671 -0.706542 0.707671 78.3496 2.93567)" fill="url(#paint24_radial_703_1614)"/>
<rect width="1.83422" height="1.83422" rx="0.305703" transform="matrix(-0.706542 -0.707671 -0.706542 0.707671 82.2524 3.93835)" fill="url(#paint25_radial_703_1614)"/>
<rect width="1.83422" height="1.83422" rx="0.305703" transform="matrix(-0.706542 -0.707671 -0.706542 0.707671 85.9141 5.16077)" fill="url(#paint26_radial_703_1614)"/>
<defs>
<linearGradient id="paint0_linear_703_1614" x1="4.58919" y1="55.34" x2="5.99166" y2="47.5954" gradientUnits="userSpaceOnUse">
<stop stop-color="#FF474D"/>
<stop offset="1" stop-color="#FFD7D7"/>
</linearGradient>
<radialGradient id="paint1_radial_703_1614" cx="0" cy="0" r="1" gradientUnits="userSpaceOnUse" gradientTransform="translate(0.91711 0.91711) rotate(85.3036) scale(1.75783)">
<stop stop-color="#FF474D"/>
<stop offset="1" stop-color="#FFD7D7"/>
</radialGradient>
<radialGradient id="paint2_radial_703_1614" cx="0" cy="0" r="1" gradientUnits="userSpaceOnUse" gradientTransform="translate(0.91711 0.91711) rotate(85.3036) scale(1.75783)">
<stop stop-color="#FF474D"/>
<stop offset="1" stop-color="#FFD7D7"/>
</radialGradient>
<radialGradient id="paint3_radial_703_1614" cx="0" cy="0" r="1" gradientUnits="userSpaceOnUse" gradientTransform="translate(0.91711 0.91711) rotate(85.3036) scale(1.75783)">
<stop stop-color="#FF474D"/>
<stop offset="1" stop-color="#FFD7D7"/>
</radialGradient>
<radialGradient id="paint4_radial_703_1614" cx="0" cy="0" r="1" gradientUnits="userSpaceOnUse" gradientTransform="translate(0.91711 0.91711) rotate(85.3036) scale(1.75783)">
<stop stop-color="#FF474D"/>
<stop offset="1" stop-color="#FFD7D7"/>
</radialGradient>
<radialGradient id="paint5_radial_703_1614" cx="0" cy="0" r="1" gradientUnits="userSpaceOnUse" gradientTransform="translate(0.91711 0.91711) rotate(85.3036) scale(1.75783)">
<stop stop-color="#FF474D"/>
<stop offset="1" stop-color="#FFD7D7"/>
</radialGradient>
<radialGradient id="paint6_radial_703_1614" cx="0" cy="0" r="1" gradientUnits="userSpaceOnUse" gradientTransform="translate(0.91711 0.91711) rotate(85.3036) scale(1.75783)">
<stop stop-color="#FF474D"/>
<stop offset="1" stop-color="#FFD7D7"/>
</radialGradient>
<radialGradient id="paint7_radial_703_1614" cx="0" cy="0" r="1" gradientUnits="userSpaceOnUse" gradientTransform="translate(0.91711 0.91711) rotate(85.3036) scale(1.75783)">
<stop stop-color="#FF474D"/>
<stop offset="1" stop-color="#FFD7D7"/>
</radialGradient>
<radialGradient id="paint8_radial_703_1614" cx="0" cy="0" r="1" gradientUnits="userSpaceOnUse" gradientTransform="translate(0.91711 0.91711) rotate(85.3036) scale(1.75783)">
<stop stop-color="#FF474D"/>
<stop offset="1" stop-color="#FFD7D7"/>
</radialGradient>
<radialGradient id="paint9_radial_703_1614" cx="0" cy="0" r="1" gradientUnits="userSpaceOnUse" gradientTransform="translate(0.91711 0.91711) rotate(85.3036) scale(1.75783)">
<stop stop-color="#FF474D"/>
<stop offset="1" stop-color="#FFD7D7"/>
</radialGradient>
<radialGradient id="paint10_radial_703_1614" cx="0" cy="0" r="1" gradientUnits="userSpaceOnUse" gradientTransform="translate(0.91711 0.91711) rotate(85.3036) scale(1.75783)">
<stop stop-color="#FF474D"/>
<stop offset="1" stop-color="#FFD7D7"/>
</radialGradient>
<radialGradient id="paint11_radial_703_1614" cx="0" cy="0" r="1" gradientUnits="userSpaceOnUse" gradientTransform="translate(0.91711 0.91711) rotate(85.3036) scale(1.75783)">
<stop stop-color="#FF474D"/>
<stop offset="1" stop-color="#FFD7D7"/>
</radialGradient>
<radialGradient id="paint12_radial_703_1614" cx="0" cy="0" r="1" gradientUnits="userSpaceOnUse" gradientTransform="translate(0.91711 0.91711) rotate(85.3036) scale(1.75783)">
<stop stop-color="#FF474D"/>
<stop offset="1" stop-color="#FFD7D7"/>
</radialGradient>
<radialGradient id="paint13_radial_703_1614" cx="0" cy="0" r="1" gradientUnits="userSpaceOnUse" gradientTransform="translate(0.91711 0.91711) rotate(85.3036) scale(1.75783)">
<stop stop-color="#FF474D"/>
<stop offset="1" stop-color="#FFD7D7"/>
</radialGradient>
<radialGradient id="paint14_radial_703_1614" cx="0" cy="0" r="1" gradientUnits="userSpaceOnUse" gradientTransform="translate(0.91711 0.91711) rotate(85.3036) scale(1.75783)">
<stop stop-color="#FF474D"/>
<stop offset="1" stop-color="#FFD7D7"/>
</radialGradient>
<radialGradient id="paint15_radial_703_1614" cx="0" cy="0" r="1" gradientUnits="userSpaceOnUse" gradientTransform="translate(0.91711 0.91711) rotate(85.3036) scale(1.75783)">
<stop stop-color="#FF474D"/>
<stop offset="1" stop-color="#FFD7D7"/>
</radialGradient>
<radialGradient id="paint16_radial_703_1614" cx="0" cy="0" r="1" gradientUnits="userSpaceOnUse" gradientTransform="translate(0.91711 0.91711) rotate(85.3036) scale(1.75783)">
<stop stop-color="#FF474D"/>
<stop offset="1" stop-color="#FFD7D7"/>
</radialGradient>
<radialGradient id="paint17_radial_703_1614" cx="0" cy="0" r="1" gradientUnits="userSpaceOnUse" gradientTransform="translate(0.91711 0.91711) rotate(85.3036) scale(1.75783)">
<stop stop-color="#FF474D"/>
<stop offset="1" stop-color="#FFD7D7"/>
</radialGradient>
<radialGradient id="paint18_radial_703_1614" cx="0" cy="0" r="1" gradientUnits="userSpaceOnUse" gradientTransform="translate(0.91711 0.91711) rotate(85.3036) scale(1.75783)">
<stop stop-color="#FF474D"/>
<stop offset="1" stop-color="#FFD7D7"/>
</radialGradient>
<radialGradient id="paint19_radial_703_1614" cx="0" cy="0" r="1" gradientUnits="userSpaceOnUse" gradientTransform="translate(0.91711 0.91711) rotate(85.3036) scale(1.75783)">
<stop stop-color="#FF474D"/>
<stop offset="1" stop-color="#FFD7D7"/>
</radialGradient>
<radialGradient id="paint20_radial_703_1614" cx="0" cy="0" r="1" gradientUnits="userSpaceOnUse" gradientTransform="translate(0.91711 0.91711) rotate(85.3036) scale(1.75783)">
<stop stop-color="#FF474D"/>
<stop offset="1" stop-color="#FFD7D7"/>
</radialGradient>
<radialGradient id="paint21_radial_703_1614" cx="0" cy="0" r="1" gradientUnits="userSpaceOnUse" gradientTransform="translate(0.91711 0.91711) rotate(85.3036) scale(1.75783)">
<stop stop-color="#FF474D"/>
<stop offset="1" stop-color="#FFD7D7"/>
</radialGradient>
<radialGradient id="paint22_radial_703_1614" cx="0" cy="0" r="1" gradientUnits="userSpaceOnUse" gradientTransform="translate(0.91711 0.91711) rotate(85.3036) scale(1.75783)">
<stop stop-color="#FF474D"/>
<stop offset="1" stop-color="#FFD7D7"/>
</radialGradient>
<radialGradient id="paint23_radial_703_1614" cx="0" cy="0" r="1" gradientUnits="userSpaceOnUse" gradientTransform="translate(0.91711 0.91711) rotate(85.3036) scale(1.75783)">
<stop stop-color="#FF474D"/>
<stop offset="1" stop-color="#FFD7D7"/>
</radialGradient>
<radialGradient id="paint24_radial_703_1614" cx="0" cy="0" r="1" gradientUnits="userSpaceOnUse" gradientTransform="translate(0.91711 0.91711) rotate(85.3036) scale(1.75783)">
<stop stop-color="#FF474D"/>
<stop offset="1" stop-color="#FFD7D7"/>
</radialGradient>
<radialGradient id="paint25_radial_703_1614" cx="0" cy="0" r="1" gradientUnits="userSpaceOnUse" gradientTransform="translate(0.91711 0.91711) rotate(85.3036) scale(1.75783)">
<stop stop-color="#FF474D"/>
<stop offset="1" stop-color="#FFD7D7"/>
</radialGradient>
<radialGradient id="paint26_radial_703_1614" cx="0" cy="0" r="1" gradientUnits="userSpaceOnUse" gradientTransform="translate(0.91711 0.91711) rotate(85.3036) scale(1.75783)">
<stop stop-color="#FF474D"/>
<stop offset="1" stop-color="#FFD7D7"/>
</radialGradient>
</defs>
</svg>
